<svg width="454" height="96" viewBox="0 0 454 96" fill="none" xmlns="http://www.w3.org/2000/svg">
<path d="M44.928 13.8V14.76H14.688V45.48H42.72V46.44H14.688V81H6.72V13.8H44.928ZM63.3758 81C57.7438 81 54.1918 79.528 52.7198 76.584C52.3998 75.944 52.2398 75.368 52.2398 74.856V9.096H58.9598V74.184C58.9598 76.04 59.3118 77.48 60.0157 78.504C60.7838 79.464 61.5518 79.976 62.3198 80.04L63.3758 80.232H66.3518V81H63.3758ZM81.507 81C78.883 81 76.867 80.424 75.459 79.272C74.115 78.12 73.411 76.968 73.347 75.816L73.251 74.184V33H79.971V74.184C79.971 76.04 80.323 77.48 81.027 78.504C81.795 79.464 82.531 79.976 83.235 80.04L84.387 80.232H87.363V81H81.507ZM73.827 22.248C73.059 21.48 72.675 20.52 72.675 19.368C72.675 18.216 73.059 17.256 73.827 16.488C74.595 15.656 75.555 15.24 76.707 15.24C77.859 15.24 78.819 15.656 79.587 16.488C80.419 17.256 80.835 18.216 80.835 19.368C80.835 20.52 80.419 21.48 79.587 22.248C78.819 23.016 77.859 23.4 76.707 23.4C75.555 23.4 74.595 23.016 73.827 22.248ZM112.742 33.384C108.198 33.384 104.39 35.56 101.318 39.912C98.3095 44.264 96.8055 50.28 96.8055 57.96C96.8055 65.64 98.1815 71.336 100.934 75.048C103.75 78.76 107.43 80.616 111.974 80.616C117.67 80.616 122.726 79.656 127.142 77.736L127.43 78.408C122.886 80.392 117.574 81.384 111.494 81.384C105.414 81.384 100.358 79.464 96.3255 75.624C92.2935 71.784 90.2775 65.864 90.2775 57.864C90.2775 49.864 92.3895 43.656 96.6135 39.24C100.838 34.824 106.214 32.616 112.742 32.616C116.39 32.616 119.75 33.448 122.822 35.112C125.958 36.776 128.262 39.304 129.734 42.696H123.59C122.63 39.56 121.158 37.224 119.174 35.688C117.254 34.152 115.11 33.384 112.742 33.384ZM144.176 8.99999V56.808L165.296 33H166.256L150.608 50.664L171.248 81H164.528L146.768 54.888L144.176 57.864V81H137.456V8.99999H144.176ZM273.393 81H265.425V13.8H273.393V44.712H304.593V13.8H312.561V81H304.593V45.672H273.393V81ZM327.904 69.96C327.904 75.016 329.248 78.248 331.936 79.656C333.216 80.296 334.848 80.616 336.832 80.616C340.864 80.616 344.448 79.08 347.584 76.008C350.784 72.936 352.512 70.088 352.768 67.464V33H359.488V74.184C359.488 76.04 359.84 77.48 360.544 78.504C361.312 79.464 362.08 79.976 362.848 80.04L363.904 80.232H366.88V81H361.024C358.4 81 356.384 80.424 354.976 79.272C353.632 78.12 352.928 76.968 352.864 75.816L352.768 74.184V70.056C351.616 72.808 349.568 75.4 346.624 77.832C343.68 80.2 340.448 81.384 336.928 81.384C333.472 81.384 330.624 81.064 328.384 80.424C326.208 79.72 324.64 78.76 323.68 77.544C322.016 75.56 321.184 73 321.184 69.864V33H327.904V69.96ZM411.555 81C408.931 81 406.915 80.424 405.507 79.272C404.163 78.12 403.459 76.968 403.395 75.816L403.299 74.184V44.04C403.299 38.984 401.987 35.752 399.363 34.344C398.019 33.704 396.355 33.384 394.371 33.384C390.275 33.384 386.595 35.016 383.331 38.28C380.067 41.48 378.435 44.36 378.435 46.92V81H371.715V33H378.435V43.944C379.523 41.192 381.539 38.632 384.483 36.264C387.427 33.832 390.659 32.616 394.179 32.616C397.699 32.616 400.547 32.968 402.723 33.672C404.963 34.312 406.595 35.24 407.619 36.456C409.219 38.44 410.019 41 410.019 44.136V74.184C410.019 76.04 410.371 77.48 411.075 78.504C411.843 79.464 412.611 79.976 413.379 80.04L414.435 80.232H417.411V81H411.555ZM421.766 33.768V33H423.782V23.4H430.502V33H445.19V33.768H430.502V68.712C430.502 72.872 430.95 75.88 431.846 77.736C432.806 79.592 434.758 80.52 437.702 80.52C440.71 80.52 443.75 79.912 446.822 78.696L447.11 79.464C443.91 80.68 440.23 81.288 436.07 81.288C431.974 81.288 428.902 80.456 426.854 78.792C424.806 77.064 423.782 73.672 423.782 68.616V33.768H421.766Z" fill="white"/>
<path d="M188.081 28.9878C188.033 28.9537 187.989 28.9156 187.95 28.8739C187.988 28.9046 188.029 28.9325 188.072 28.9574L188.081 28.9878Z" fill="#D83F87"/>
<path d="M247.582 15.6261C246.264 14.9424 244.77 14.5611 243.238 14.5177C243.263 12.9263 242.814 11.3567 241.935 9.96251C240.802 8.20605 239.06 6.80915 236.96 5.97286C234.86 5.13657 232.511 4.90402 230.25 5.30868C229.001 5.56618 227.821 6.03283 226.775 6.68281C225.801 5.15194 224.343 3.89893 222.575 3.07388C220.806 2.24883 218.803 1.88672 216.806 2.03093C214.808 2.17514 212.9 2.81954 211.311 3.88696C209.722 4.95438 208.518 6.39955 207.845 8.04935C206.283 7.97487 204.721 8.18175 203.255 8.65714C201.789 9.13253 200.45 9.86628 199.322 10.8128C198.213 11.7773 197.367 12.9475 196.846 14.2368C195.291 13.6543 193.587 13.4429 191.908 13.6243C190.229 13.8057 188.636 14.3734 187.29 15.2692C183.693 17.7974 183.954 21.8818 184.041 22.6714C184.352 25.1081 185.754 27.3381 187.942 28.8739C187.979 28.9046 188.02 28.9325 188.063 28.9574L189.592 41.6511L193.675 75.5641C193.856 77.062 194.668 78.4476 195.952 79.4521C197.236 80.4566 198.902 81.0082 200.626 80.9999H235.237C236.961 81.0082 238.626 80.4566 239.911 79.4521C241.195 78.4476 242.006 77.062 242.187 75.5641L243.543 64.3281L240.067 64.1687L238.695 75.2756C238.604 76.0245 238.199 76.7174 237.556 77.2196C236.914 77.7219 236.082 77.9977 235.22 77.9935H229.66L230.937 42.3116V42.2812L231.354 30.7339C232.88 30.3661 234.356 29.8571 235.758 29.2156C237.496 28.4564 239.233 27.7655 240.71 27.7655C241.966 27.8295 243.194 28.119 244.316 28.6158L242.778 41.3626L241.119 55.1267L244.594 55.2937L246.236 41.6815L247.808 28.6158C249.037 27.9619 250.063 27.0529 250.793 25.9696C251.524 24.8862 251.937 23.662 251.996 22.4056C252.152 18.1466 248.051 15.869 247.582 15.6261ZM200.608 77.9631C199.746 77.9673 198.914 77.6915 198.271 77.1893C197.629 76.687 197.224 75.9942 197.133 75.2452L193.05 41.3322L191.53 28.6158C192.643 28.108 193.865 27.8056 195.118 27.7276C196.62 27.7276 198.297 28.4336 200.069 29.1776C201.472 29.8192 202.948 30.3282 204.474 30.696L204.891 41.0134V41.0665C204.891 41.1197 204.891 41.1652 204.891 41.2184L205.994 72.1478V72.1933C205.994 72.2465 205.994 72.292 205.994 72.3451L206.194 77.9935L200.608 77.9631ZM227.479 42.2357V42.2812L226.202 77.9631H209.643L209.435 72.1098V72.0642L208.366 41.021V40.9754L208.001 30.8478C209.751 30.5108 211.439 29.9614 213.014 29.2156C214.752 28.4564 216.489 27.7655 217.966 27.7655C219.443 27.7655 221.146 28.4716 222.918 29.2156C224.494 29.9614 226.181 30.5108 227.931 30.8478L227.479 42.2357ZM246.053 26.0118C244.406 25.2513 242.588 24.8135 240.728 24.7288C238.434 24.7288 236.314 25.617 234.273 26.4749C232.535 27.2341 230.798 27.9249 229.33 27.9249C227.861 27.9249 226.15 27.2189 224.378 26.4749C222.336 25.617 220.216 24.7288 217.923 24.7288C215.629 24.7288 213.509 25.617 211.468 26.4749C209.73 27.2341 207.993 27.9249 206.516 27.9249C205.039 27.9249 203.345 27.2189 201.572 26.4749C199.522 25.617 197.411 24.7288 195.118 24.7288C193.182 24.8196 191.295 25.2864 189.592 26.0953C188.42 25.1071 187.682 23.7905 187.507 22.3753C187.446 21.859 187.273 19.1867 189.471 17.6303C190.428 17.0263 191.561 16.6727 192.74 16.6109C193.918 16.549 195.092 16.7815 196.125 17.2811C196.055 18.0936 196.081 18.9103 196.203 19.7181C196.262 20.0829 196.471 20.4166 196.791 20.6568C197.111 20.8971 197.519 21.0275 197.941 21.0239H198.202C198.434 20.9964 198.657 20.9282 198.858 20.8234C199.059 20.7187 199.233 20.5795 199.371 20.4143C199.509 20.2491 199.607 20.0613 199.66 19.8621C199.713 19.6628 199.719 19.4564 199.679 19.255C199.609 18.8602 199.079 15.3224 201.79 12.9689C204.5 10.6154 209.035 10.418 212.667 12.4147C213.056 12.6301 213.527 12.7016 213.977 12.6133C214.427 12.525 214.818 12.2843 215.064 11.944C215.311 11.6037 215.393 11.1918 215.292 10.7988C215.191 10.4059 214.915 10.0641 214.526 9.84863C213.552 9.30948 212.5 8.8857 211.398 8.58838C211.899 7.70099 212.631 6.9292 213.537 6.33562C214.443 5.74204 215.496 5.34339 216.611 5.17203C218.318 5.00834 220.038 5.36255 221.482 6.1753C222.926 6.98804 224.007 8.20991 224.543 9.63606C224.644 9.88232 224.817 10.1015 225.044 10.2723C225.27 10.4431 225.544 10.5598 225.838 10.611C226.131 10.6622 226.435 10.6461 226.72 10.5644C227.004 10.4827 227.26 10.3382 227.462 10.1447C228.403 9.21609 229.645 8.55946 231.024 8.26193C232.554 8.00189 234.139 8.16657 235.556 8.7329C236.974 9.29923 238.153 10.2388 238.929 11.4202C239.749 12.7809 240.001 14.3485 239.642 15.8538C239.586 16.0985 239.601 16.3513 239.684 16.59C239.767 16.8286 239.916 17.0457 240.118 17.222C240.32 17.3984 240.568 17.5286 240.841 17.6011C241.114 17.6737 241.403 17.6863 241.683 17.6379C243.093 17.3958 244.555 17.6061 245.801 18.2301C245.914 18.2908 248.625 19.7485 248.529 22.3373C248.491 23.0798 248.245 23.8029 247.814 24.4434C247.382 25.0839 246.778 25.6223 246.053 26.0118Z" fill="#D83F87"/>
<path d="M243.984 59.8266C244.035 58.9893 243.3 58.2739 242.342 58.2289C241.384 58.1838 240.565 58.8261 240.514 59.6635C240.462 60.5008 241.197 61.2162 242.155 61.2612C243.113 61.3063 243.932 60.664 243.984 59.8266Z" fill="#D83F87"/>
</svg>
