<svg width="25" height="25" viewBox="0 0 36 36" fill="none" xmlns="http://www.w3.org/2000/svg">
<path fill-rule="evenodd" clip-rule="evenodd" d="M24.7652 26.9596C22.2519 28.9914 19.0526 30.2081 15.569 30.2081C7.48405 30.2081 0.929932 23.654 0.929932 15.569C0.929932 7.48411 7.48405 0.929993 15.569 0.929993C23.6539 0.929993 30.208 7.48411 30.208 15.569C30.208 19.0526 28.9913 22.252 26.9595 24.7653C26.9283 24.804 26.8969 24.8425 26.8652 24.8808C26.2369 25.6422 25.5331 26.339 24.7652 26.9596ZM27.0711 15.569C27.0711 21.9215 21.9214 27.0712 15.569 27.0712C9.21658 27.0712 4.06687 21.9215 4.06687 15.569C4.06687 9.21664 9.21658 4.06693 15.569 4.06693C21.9214 4.06693 27.0711 9.21664 27.0711 15.569Z" fill="#D83F87"/>
<path d="M33.2524 35.4706L26.9517 29.1698C27.7544 28.4969 28.4969 27.7544 29.1698 26.9517L35.4706 33.2524C36.0831 33.865 36.0831 34.8581 35.4706 35.4706C34.8581 36.0831 33.865 36.0831 33.2524 35.4706Z" fill="#D83F87"/>
</svg>
